<svg class="animated" id="freepik_stories-503-error-service-unavailable" xmlns="http://www.w3.org/2000/svg" viewBox="0 0 500 500" version="1.1" xmlns:xlink="http://www.w3.org/1999/xlink" xmlns:svgjs="http://svgjs.com/svgjs"><style>svg#freepik_stories-503-error-service-unavailable:not(.animated) .animable {opacity: 0;}svg#freepik_stories-503-error-service-unavailable.animated #freepik--Numbers--inject-106 {animation: 1s 1 forwards cubic-bezier(.36,-0.01,.5,1.38) slideUp;animation-delay: 0.8s;opacity: 0}svg#freepik_stories-503-error-service-unavailable.animated #freepik--Dinosaur--inject-106 {animation: 1s 1 forwards cubic-bezier(.36,-0.01,.5,1.38) slideRight,1.5s Infinite  linear floating;animation-delay: 1.6s,2.1s;opacity: 0}svg#freepik_stories-503-error-service-unavailable.animated #freepik--Sign--inject-106 {animation: 1s 1 forwards cubic-bezier(.36,-0.01,.5,1.38) slideUp;animation-delay: 0s;}            @keyframes slideUp {                0% {                    opacity: 0;                    transform: translateY(30px);                }                100% {                    opacity: 1;                    transform: inherit;                }            }                    @keyframes slideRight {                0% {                    opacity: 0;                    transform: translateX(30px);                }                100% {                    opacity: 1;                    transform: translateX(0);                }            }                    @keyframes floating {                0% {                    opacity: 1;                    transform: translateY(0px);                }                50% {                    transform: translateY(-10px);                }                100% {                    opacity: 1;                    transform: translateY(0px);                }            }        </style><g id="freepik--background-complete--inject-106" class="animable" style="transform-origin: 246.316px 249.506px;"><path d="M140.56,461.08a15.62,15.62,0,0,0-7.26,8A21.87,21.87,0,0,1,127.36,455a10.64,10.64,0,0,0-6.45,10.57L101.8,447.73q-1.47,10.53-3,21.06a104.7,104.7,0,0,0-15.66-29q-.21,11.93-.41,23.84a124.55,124.55,0,0,0-39.86-46.34c5,11.06,10,22.23,12.53,34.11a47.77,47.77,0,0,0-22.08-21.7,124.36,124.36,0,0,1,21.48,46.7l91.67.06s-3.9-10.09,2.9-13.49Z" style="fill: rgb(235, 235, 235); transform-origin: 91.345px 446.875px;" id="elz76rmtkoz1" class="animable"></path><g id="ela8c675fh2a7"><circle cx="98.21" cy="106.64" r="59.6" style="fill: rgb(235, 235, 235); transform-origin: 98.21px 106.64px; transform: rotate(-45deg);" class="animable" id="ele1d581wrsd"></circle></g><path d="M478.71,388.45a72.19,72.19,0,0,0-36,52.92A187.64,187.64,0,0,1,451.66,387a100.06,100.06,0,0,0-22.54,57.28l-2.52-34.78c-8.24,16-9,34.62-9.52,52.58a65.67,65.67,0,0,0-14.46-19.79c2.32,11,4.68,23.34,7,34.37l47.55-.11-.89-9.5A111.16,111.16,0,0,1,478.71,388.45Z" style="fill: rgb(235, 235, 235); transform-origin: 440.665px 431.83px;" id="elr2a9tw82ypn" class="animable"></path><path d="M435.35,170.73c.64-4.61-5.86-8.39-10.74-8.79-2.33-.18-4.75.17-7-.6-4.78-1.66-6.69-7.84-11.35-9.81-3.49-1.47-7.5-.16-10.88,1.54s-6.72,3.85-10.5,4.09c-3.28.21-6.85-1-9.72.6-2.14,1.19-3.27,3.66-5.24,5.11s-4.45,1.73-6.85,1.86-4.87.15-7.05,1.15-4,3.31-3.54,5.67Z" style="fill: rgb(245, 245, 245); transform-origin: 393.901px 161.221px;" id="elqq233ysmurs" class="animable"></path><path d="M311.07,87.14c.55-4-5.1-7.3-9.35-7.64-2-.16-4.13.15-6.05-.52-4.16-1.45-5.82-6.82-9.87-8.53-3-1.28-6.53-.14-9.47,1.34s-5.84,3.34-9.13,3.55c-2.86.18-6-.88-8.46.52-1.86,1-2.84,3.18-4.56,4.45s-3.87,1.5-6,1.62a16.67,16.67,0,0,0-6.14,1c-1.9.87-3.47,2.88-3.08,4.93Z" style="fill: rgb(235, 235, 235); transform-origin: 275.004px 78.8776px;" id="elxcwjwsk6x9f" class="animable"></path><path d="M154.93,247.62c.77-5.59-7.13-10.19-13.06-10.67-2.82-.23-5.76.2-8.44-.73-5.8-2-8.12-9.52-13.79-11.91-4.23-1.79-9.11-.2-13.21,1.87s-8.16,4.66-12.75,5c-4,.25-8.32-1.23-11.81.72-2.6,1.45-4,4.45-6.36,6.22s-5.4,2.09-8.31,2.25-5.92.19-8.57,1.4-4.85,4-4.3,6.88Z" style="fill: rgb(235, 235, 235); transform-origin: 104.614px 236.092px;" id="elci6z2iyv91" class="animable"></path><g id="elkagmysrugir"><circle cx="401.85" cy="219.67" r="28.41" style="fill: rgb(235, 235, 235); transform-origin: 401.85px 219.67px; transform: rotate(-19.3443deg);" class="animable" id="el9uh6a25ug5j"></circle></g><path d="M392.3,220.71a4.63,4.63,0,1,1,1.82-6.29A4.62,4.62,0,0,1,392.3,220.71Z" style="fill: rgb(255, 255, 255); transform-origin: 390.067px 216.655px;" id="el8d4nk5g64zm" class="animable"></path><path d="M400.84,208.5a2.69,2.69,0,1,1,1.06-3.66A2.69,2.69,0,0,1,400.84,208.5Z" style="fill: rgb(255, 255, 255); transform-origin: 399.546px 206.142px;" id="elf65ia09hcb6" class="animable"></path><path d="M382.5,198.86c-.37.35-32.71-9.74-34.05-1.81S371.13,222,398,233s56.26,18.37,58.68,10.59-26.43-24.13-26.43-24.13l-.26,4s17.84,9.67,16.72,16.45-23.09,1.31-47.47-10.06-44.26-24.39-42-29.34S379.58,202,379.58,202Z" style="fill: rgb(224, 224, 224); transform-origin: 402.61px 220.41px;" id="elffrod1nkrmp" class="animable"></path><path d="M411.82,196.29c-.13.34-2.49-.56-6.41-.89A26.19,26.19,0,0,0,380,208.77c-1.95,3.42-2.55,5.87-2.9,5.79s-.19-2.67,1.52-6.5a24.49,24.49,0,0,1,4-6.14,24.58,24.58,0,0,1,15.7-8.25,24.63,24.63,0,0,1,7.33.19C409.74,194.62,411.94,196.08,411.82,196.29Z" style="fill: rgb(255, 255, 255); transform-origin: 394.387px 204.022px;" id="elrgcrx2m1mnl" class="animable"></path><g id="el2o8404r3b2s"><circle cx="444.34" cy="113.07" r="18.57" style="fill: rgb(224, 224, 224); transform-origin: 444.34px 113.07px; transform: rotate(-19.33deg);" class="animable" id="el88zdbyrb7b"></circle></g><path d="M450.39,106a3,3,0,1,1,3,3.09A3,3,0,0,1,450.39,106Z" style="fill: rgb(245, 245, 245); transform-origin: 453.389px 106.09px;" id="el8mund5ybs92" class="animable"></path><path d="M456.45,113a1.76,1.76,0,1,1,1.72,1.8A1.75,1.75,0,0,1,456.45,113Z" style="fill: rgb(245, 245, 245); transform-origin: 458.209px 113.04px;" id="elg7hxzlrne34" class="animable"></path><path d="M454.09,118.44a.63.63,0,0,1,.63.66.65.65,0,1,1-1.3,0A.65.65,0,0,1,454.09,118.44Z" style="fill: rgb(245, 245, 245); transform-origin: 454.07px 119.095px;" id="elr832j3wj7p8" class="animable"></path></g><g id="freepik--Floor--inject-106" class="animable" style="transform-origin: 250px 476.5px;"><path d="M467.27,476.5c0,.14-97.28.26-217.26.26s-217.28-.12-217.28-.26,97.26-.26,217.28-.26S467.27,476.36,467.27,476.5Z" style="fill: rgb(38, 50, 56); transform-origin: 250px 476.5px;" id="elbks979exxo" class="animable"></path></g><g id="freepik--Plant--inject-106" class="animable" style="transform-origin: 271.219px 446.565px;"><path d="M100.09,476.5a2,2,0,0,1-.13-.5c-.08-.38-.17-.86-.28-1.43-.22-1.25-.58-3.05-1.07-5.26a100.64,100.64,0,0,0-5.29-16.86A84.39,84.39,0,0,0,89,443.73c-.78-1.27-1.48-2.51-2.24-3.6l-1.07-1.6c-.37-.5-.72-1-1-1.43-.66-.93-1.32-1.71-1.89-2.41s-1.06-1.29-1.49-1.76l-1-1.1a1.9,1.9,0,0,1-.31-.41s.15.11.39.34l1,1A20.4,20.4,0,0,1,83,434.51c.58.68,1.27,1.45,2,2.37L86,438.29c.37.51.73,1,1.11,1.6.78,1.09,1.5,2.32,2.3,3.6a82.16,82.16,0,0,1,4.37,8.76,92.27,92.27,0,0,1,5.17,17c.45,2.23.75,4,.91,5.31.07.58.13,1.06.18,1.45A1.65,1.65,0,0,1,100.09,476.5Z" style="fill: rgb(38, 50, 56); transform-origin: 90.046px 453.96px;" id="el7djy3kb92py" class="animable"></path><path d="M72.26,446.42a7.91,7.91,0,0,1,1.49.49,15.65,15.65,0,0,1,1.69.72c.64.32,1.4.64,2.17,1.11a26.29,26.29,0,0,1,2.51,1.56c.9.57,1.77,1.3,2.71,2a36.21,36.21,0,0,1,9.46,12.22,32.7,32.7,0,0,1,1.3,3.13,27.24,27.24,0,0,1,.89,2.82c.26.87.38,1.68.53,2.38a13.86,13.86,0,0,1,.27,1.82,7.88,7.88,0,0,1,.11,1.56c-.11,0-.28-2.22-1.27-5.66a27.34,27.34,0,0,0-.93-2.77c-.34-1-.84-2-1.33-3.07a40.6,40.6,0,0,0-4-6.51,40.33,40.33,0,0,0-5.29-5.55c-.92-.74-1.77-1.47-2.65-2a27.41,27.41,0,0,0-2.45-1.6C74.34,447.24,72.22,446.53,72.26,446.42Z" style="fill: rgb(38, 50, 56); transform-origin: 83.8264px 461.325px;" id="el6g5asn0z5sm" class="animable"></path><path d="M97.74,416.46a2.87,2.87,0,0,1,.07.62q0,.69.09,1.77c.06,1.54.17,3.76.34,6.51.34,5.48,1,13.06,2.25,21.35s2.83,15.74,4.12,21.08c.64,2.68,1.18,4.84,1.58,6.32.17.7.32,1.27.43,1.72a3,3,0,0,1,.12.61,3.11,3.11,0,0,1-.22-.58c-.14-.44-.31-1-.53-1.69-.45-1.48-1-3.62-1.74-6.29a210.11,210.11,0,0,1-6.38-42.5c-.12-2.75-.18-5-.17-6.52v-1.78A2.78,2.78,0,0,1,97.74,416.46Z" style="fill: rgb(38, 50, 56); transform-origin: 102.218px 446.45px;" id="elinjwy8l1pvi" class="animable"></path><path d="M62.82,461.41a2.54,2.54,0,0,1,.75.34c.47.25,1.12.64,1.91,1.16a32.56,32.56,0,0,1,5.64,4.79,32,32,0,0,1,4.36,6c.46.83.81,1.51,1,2a2.46,2.46,0,0,1,.29.77,26.41,26.41,0,0,1-1.63-2.58,38.86,38.86,0,0,0-4.42-5.8,39.88,39.88,0,0,0-5.47-4.84C63.76,462.1,62.78,461.48,62.82,461.41Z" style="fill: rgb(38, 50, 56); transform-origin: 69.7944px 468.94px;" id="eldrbkdr0iqlq" class="animable"></path><path d="M78.7,460A12.71,12.71,0,0,1,79,462.4c.15,1.5.35,3.55.62,5.82s.57,4.32.78,5.8a12.87,12.87,0,0,1,.26,2.42,10.7,10.7,0,0,1-.62-2.36c-.3-1.47-.66-3.52-.94-5.8s-.41-4.35-.47-5.85A10.91,10.91,0,0,1,78.7,460Z" style="fill: rgb(38, 50, 56); transform-origin: 79.6263px 468.22px;" id="elg846qioiepq" class="animable"></path><path d="M228.65,424a1.87,1.87,0,0,1,0,.54l-.09,1.54c-.1,1.33-.21,3.26-.32,5.65a172.66,172.66,0,0,0,2.33,37.17c.4,2.36.76,4.26,1,5.57.11.61.21,1.11.28,1.51a3.08,3.08,0,0,1,.07.54,1.81,1.81,0,0,1-.17-.51l-.38-1.5c-.32-1.3-.73-3.19-1.18-5.54a150,150,0,0,1-2.33-18.56,152.21,152.21,0,0,1,0-18.7c.16-2.39.33-4.32.49-5.65.07-.62.14-1.12.19-1.53A2.1,2.1,0,0,1,228.65,424Z" style="fill: rgb(38, 50, 56); transform-origin: 229.746px 450.26px;" id="elwj0qb086ifr" class="animable"></path><path d="M236.74,452.48a32.35,32.35,0,0,1-.62,3.46c-.4,2.12-.9,5.07-1.26,8.35s-.51,6.27-.58,8.43a29.76,29.76,0,0,1-.16,3.51,4,4,0,0,1-.12-.94c0-.6-.08-1.48-.09-2.57a71.64,71.64,0,0,1,.43-8.48,73.33,73.33,0,0,1,1.42-8.38c.25-1.06.48-1.91.65-2.49A3.17,3.17,0,0,1,236.74,452.48Z" style="fill: rgb(38, 50, 56); transform-origin: 235.324px 464.355px;" id="el80yox6htpvl" class="animable"></path><path d="M335.3,429.62a1.5,1.5,0,0,1,.06.48c0,.37.05.83.07,1.37.06,1.28.13,3,.21,5.06.19,4.28.53,10.18,1.11,16.67s1.32,12.37,1.91,16.6c.29,2.06.53,3.75.7,5,.08.54.14,1,.18,1.37a1.46,1.46,0,0,1,0,.48,1.78,1.78,0,0,1-.13-.47c-.07-.36-.17-.81-.28-1.35-.23-1.17-.53-2.88-.87-5-.67-4.23-1.46-10.1-2.05-16.61s-.87-12.42-1-16.7c0-2.14-.06-3.88,0-5.07q0-.83,0-1.38A2.2,2.2,0,0,1,335.3,429.62Z" style="fill: rgb(38, 50, 56); transform-origin: 337.372px 453.135px;" id="elwt0mdau8m1n" class="animable"></path><path d="M346.51,452.74c.07,0-.35,1.32-.92,3.44a63.24,63.24,0,0,0-1.66,8.39,61.74,61.74,0,0,0-.44,8.54c0,2.19.13,3.55.05,3.56a3.61,3.61,0,0,1-.18-.94c-.09-.62-.17-1.51-.24-2.61a49.08,49.08,0,0,1,.29-8.62,48.49,48.49,0,0,1,1.83-8.43c.33-1.05.62-1.89.86-2.46S346.47,452.72,346.51,452.74Z" style="fill: rgb(38, 50, 56); transform-origin: 344.783px 464.705px;" id="elh6iou8vo0xc" class="animable"></path><path d="M479.62,421a3.77,3.77,0,0,1-.51.42l-1.54,1.11-1.12.79c-.4.3-.81.66-1.27,1-.89.75-2,1.54-3,2.57l-1.69,1.56c-.59.55-1.13,1.18-1.73,1.8-1.23,1.22-2.38,2.67-3.61,4.16a61.46,61.46,0,0,0-11.23,22.42c-.44,1.89-.91,3.68-1.14,5.39-.13.85-.31,1.67-.38,2.47s-.16,1.56-.23,2.29c-.19,1.46-.15,2.79-.2,4,0,.58-.05,1.13,0,1.63s0,1,0,1.36c0,.78,0,1.41.06,1.9a3.37,3.37,0,0,1,0,.66,2.8,2.8,0,0,1-.09-.65c0-.49-.09-1.12-.15-1.9,0-.42-.06-.87-.1-1.37s0-1,0-1.63c0-1.18,0-2.52.14-4,.06-.74.12-1.51.19-2.31s.23-1.63.35-2.49c.22-1.73.67-3.53,1.11-5.44a64.69,64.69,0,0,1,4.45-11.9,66.08,66.08,0,0,1,6.86-10.7c1.26-1.5,2.43-2.94,3.68-4.16.61-.61,1.16-1.25,1.76-1.78l1.73-1.56c1.07-1,2.17-1.79,3.09-2.52.46-.35.88-.7,1.3-1l1.14-.76,1.6-1A3,3,0,0,1,479.62,421Z" style="fill: rgb(38, 50, 56); transform-origin: 465.646px 448.765px;" id="elohg7ae1ylxo" class="animable"></path><path d="M473.69,448.18c.06.08-1.5,1.19-3.74,3.31a46.38,46.38,0,0,0-3.68,3.95,48.59,48.59,0,0,0-3.84,5.37,50.54,50.54,0,0,0-3,5.88,46.48,46.48,0,0,0-1.81,5.09c-.86,3-1.14,4.85-1.23,4.83a6.08,6.08,0,0,1,.13-1.34c.06-.43.14-.95.27-1.55s.26-1.3.47-2A40.73,40.73,0,0,1,459,466.5a42.26,42.26,0,0,1,6.92-11.37,41.08,41.08,0,0,1,3.8-3.91c.57-.53,1.13-1,1.6-1.35a15.78,15.78,0,0,1,1.26-1A5.75,5.75,0,0,1,473.69,448.18Z" style="fill: rgb(38, 50, 56); transform-origin: 465.041px 462.395px;" id="elwhkf89rdsi" class="animable"></path></g><g id="freepik--Numbers--inject-106" class="animable" style="transform-origin: 234.089px 421.444px;"><path d="M228.67,445.58c-1.5,18.26-16.21,33.08-45.67,30.66-14.3-1.17-29-6.38-38.43-14.27l3.5-17.76,7.42.26c7.33,6.54,17.8,10.81,28.56,11.69,11.93,1,19.71-3.43,20.4-11.83.66-8.1-4.21-13.84-22.92-15.37l-26.37-2.16,10.06-57.61,62.91,5.15-1.57,19.15-43-3.52-3.23,19.46,8.4.69C219.21,412.62,230.16,427.31,228.67,445.58Z" style="fill: #E74D37; transform-origin: 186.686px 422.845px;" id="elr6tlh87fu5h" class="animable"></path><g id="ely2z8obiv5l"><g style="opacity: 0.4; transform-origin: 186.686px 422.845px;" class="animable" id="elmj6fw8pss0e"><path d="M228.67,445.58c-1.5,18.26-16.21,33.08-45.67,30.66-14.3-1.17-29-6.38-38.43-14.27l3.5-17.76,7.42.26c7.33,6.54,17.8,10.81,28.56,11.69,11.93,1,19.71-3.43,20.4-11.83.66-8.1-4.21-13.84-22.92-15.37l-26.37-2.16,10.06-57.61,62.91,5.15-1.57,19.15-43-3.52-3.23,19.46,8.4.69C219.21,412.62,230.16,427.31,228.67,445.58Z" id="elmn591ajshs" class="animable" style="transform-origin: 186.686px 422.845px;"></path></g></g><path d="M221.19,444.94c-1.5,18.27-16.21,33.08-45.67,30.67-14.29-1.17-29-6.38-38.43-14.27L148,443.84c7.32,6.53,17.8,10.8,28.55,11.69,11.94,1,19.71-3.43,20.4-11.83.66-8.1-4.2-13.84-22.92-15.37l-26.37-2.16,10.07-57.61,62.9,5.15-1.57,19.15-43-3.52-3.22,19.46,8.4.69C211.73,412,222.69,426.68,221.19,444.94Z" style="fill: #E74D37; transform-origin: 179.207px 422.214px;" id="el9w3zr51r1n" class="animable"></path><g id="elgstflat3znq"><g style="opacity: 0.2; transform-origin: 196.455px 457.34px;" class="animable" id="elxsd7vqzicdl"><path d="M190.22,453.46l10.58,7.69,1.63,4.23.26-7.15-7.51-8.93A10,10,0,0,1,190.22,453.46Z" id="el2q2adah34oq" class="animable" style="transform-origin: 196.455px 457.34px;"></path></g></g><g id="elgszwk22gto"><g style="opacity: 0.2; transform-origin: 208.045px 449.29px;" class="animable" id="eldn5odln2otp"><path d="M196.86,444.61s5.32,6.66,6.07,6.95S215.14,455,215.14,455l2.32,3,1.77-4.51-2.49-1.84-10.29-2L197,440.58Z" id="el7mrsi8hzue" class="animable" style="transform-origin: 208.045px 449.29px;"></path></g></g><g id="elb495oaiv698"><g style="opacity: 0.2; transform-origin: 207.995px 438.565px;" class="animable" id="elysx03qlmvkr"><path d="M196.35,438.44l9.58,3.58c.55-.44,10-1.34,10.95-1.55s4.54,1,4.54,1l-.75-5.41L206,439l-11.43-3.89Z" id="elgzndnzu2r6f" class="animable" style="transform-origin: 207.995px 438.565px;"></path></g></g><g id="eloubdr41gk1g"><g style="opacity: 0.2; transform-origin: 204.88px 427.36px;" class="animable" id="elqgtjsqmi8q"><path d="M213,421.23l-9.59,7.28-12.92,3.4,2.49,1.58,7.79-.57,10.74,0,7.76-2.7-1.49-2.92s-14,4-12.87,2.83,9.94-7.19,9.94-7.19L213,421.23" id="elhrpw8kq3t7h" class="animable" style="transform-origin: 204.88px 427.36px;"></path></g></g><g id="el8kcpx1nd9mh"><g style="opacity: 0.2; transform-origin: 195.62px 422.19px;" class="animable" id="elga6ga1jmcc7"><path d="M206.72,416.43l-7,8.74L187.52,431l-3-1.23L194,422l6.24-8.62A39.07,39.07,0,0,1,206.72,416.43Z" id="el5mp6z48gtfo" class="animable" style="transform-origin: 195.62px 422.19px;"></path></g></g><g id="eloa8f1b6nxp"><g style="opacity: 0.2; transform-origin: 172.425px 419.31px;" class="animable" id="el2oukjfiseqe"><path d="M148.85,422.15s5,3.37,7.81,3.36,17.06-5.69,17.06-5.69l12,.43L196,414l-11,3-10.36-.78-12.15,3-12.21-6.11Z" id="el8878bape5fc" class="animable" style="transform-origin: 172.425px 419.31px;"></path></g></g><g id="el5yllu197jj"><g style="opacity: 0.2; transform-origin: 162.09px 405.66px;" class="animable" id="elfk97jwoeszi"><polygon points="172.75 408.54 160.24 406.18 150.82 408.41 151.75 403.63 163.14 402.78 173.36 405.38 172.75 408.54" id="eljytcfo3lfo" class="animable" style="transform-origin: 162.09px 405.66px;"></polygon></g></g><g id="elpzq4efw7nd8"><g style="opacity: 0.2; transform-origin: 163.985px 393.155px;" class="animable" id="el5a9hkyx6dro"><path d="M153.24,394.82s14.19,5.07,16.12,5.24,4.85.68,4.85.68l.52-3L165.37,395l-10.64-9.43-.45,4,4.41,4.53-5-1.91Z" id="eln4pdi2fwvik" class="animable" style="transform-origin: 163.985px 393.155px;"></path></g></g><g id="el549o70vyiiw"><g style="opacity: 0.2; transform-origin: 182.785px 382.06px;" class="animable" id="el27z3yez309k"><path d="M155.91,379.89s11,7.62,13.85,7.55,10.11-.93,10.11-.93l20.34,4.55,9.45,1.19-22.3-8.2s-13.05-3.84-13.11-3.5-7.14.92-7.14.92l-9.73-9.6Z" id="ela4nerxq7j2" class="animable" style="transform-origin: 182.785px 382.06px;"></path></g></g><g id="elkb341okbi1"><g style="opacity: 0.2; transform-origin: 190.975px 379.255px;" class="animable" id="elmmo0j3ckvug"><polygon points="169.38 369.8 178.01 377.68 198.07 380.58 212.57 388.71 202.31 379.67 187.47 376.34 178.34 370.12 169.38 369.8" id="elw8dwtfrr4l" class="animable" style="transform-origin: 190.975px 379.255px;"></polygon></g></g><g id="elj1rqlkvepv8"><g style="opacity: 0.2; transform-origin: 166.685px 460.045px;" class="animable" id="elw9c70pq9wq"><path d="M140.05,457.42s9.21-2,10-1.84,15.5,8.47,15.5,8.47,16.2-.37,16.77-.35,11,6.68,11,6.68l-8.43-10L165.09,460l-10.67-10.29-10.9,1.32Z" id="el2xace6s5wk6" class="animable" style="transform-origin: 166.685px 460.045px;"></path></g></g><g id="el4u4sh2ld18y"><g style="opacity: 0.2; transform-origin: 170.495px 470.91px;" class="animable" id="elh233h2vtixj"><path d="M147.21,467.57s4.86-1.9,6.92-1.41,9.13,4.07,9.13,4.07l10.54-.55,10.46,1.44,9.52,3.53s-5.93.75-8.16,1.09L179.35,473l-13-.75-7.36.29L154.16,469l-4.7-.17Z" id="elc2m3d4vzuf" class="animable" style="transform-origin: 170.495px 470.91px;"></path></g></g><g id="elcldh59iw4k"><g style="opacity: 0.2; transform-origin: 212.235px 378.57px;" class="animable" id="elanpm1tk8h55"><polygon points="204.45 372.41 210.11 379.95 219.75 384.73 220.02 381.4 212.18 378.57 209.12 372.58 204.45 372.41" id="elokeholw69g" class="animable" style="transform-origin: 212.235px 378.57px;"></polygon></g></g><path d="M241.34,426.18C237,391.92,253.45,370.05,279,366.79c25.66-3.29,47,13.73,51.38,48s-12,56.1-37.62,59.39S245.73,460.45,241.34,426.18Zm64.82-8.3c-3-23.58-12.58-32.31-24.59-30.77s-18.92,12.37-15.9,36,12.58,32.31,24.44,30.79C302.13,452.32,309.18,441.47,306.16,417.88Z" style="fill: #E74D37; transform-origin: 285.867px 420.485px;" id="elvhs8pt25an" class="animable"></path><g id="ellu756w42l1i"><g style="opacity: 0.4; transform-origin: 285.867px 420.485px;" class="animable" id="el3yf5tfh3bvx"><path d="M241.34,426.18C237,391.92,253.45,370.05,279,366.79c25.66-3.29,47,13.73,51.38,48s-12,56.1-37.62,59.39S245.73,460.45,241.34,426.18Zm64.82-8.3c-3-23.58-12.58-32.31-24.59-30.77s-18.92,12.37-15.9,36,12.58,32.31,24.44,30.79C302.13,452.32,309.18,441.47,306.16,417.88Z" id="elfg1r8364ukj" class="animable" style="transform-origin: 285.867px 420.485px;"></path></g></g><path d="M232.57,428.11c-4.38-34.27,12.11-56.13,37.63-59.4s47,13.74,51.37,48-12,56.11-37.62,59.39C258.44,479.37,237,462.37,232.57,428.11Zm64.82-8.3c-3-23.59-12.58-32.31-24.59-30.78s-18.92,12.38-15.9,36,12.58,32.31,24.45,30.79S300.41,443.39,297.39,419.81Z" style="fill: #E74D37; transform-origin: 277.07px 422.405px;" id="ely43vk9pcylp" class="animable"></path><g id="el92j19qx25w9"><g style="opacity: 0.2; transform-origin: 283.155px 467.155px;" class="animable" id="eli6imal3wc"><path d="M261,473.07s9.28-4.08,10-4.28,14.73,2.47,14.73,2.47l12.11-5.09,9.29-.27,2.79-2.72-14.47-1.94L282.64,466l-16.77-.77-9.48,5.47Z" id="el5xh5rigzk7o" class="animable" style="transform-origin: 283.155px 467.155px;"></path></g></g><g id="eliesdebv25zd"><g style="opacity: 0.2; transform-origin: 261.275px 462.7px;" class="animable" id="elwdo2zk0232"><polygon points="251.16 466.88 263.66 461.05 276.54 461.81 263.68 458.52 251.03 462.56 246.01 461.71 251.16 466.88" id="elx5sf1qion1c" class="animable" style="transform-origin: 261.275px 462.7px;"></polygon></g></g><g id="eljccv9e8e3zk"><g style="opacity: 0.2; transform-origin: 305.25px 448.771px;" class="animable" id="el82icipwba18"><path d="M290.83,451.66s8.24.67,9.66.77,10.94-4.58,10.94-4.58l7.24,1,1-2.92-8.32-.82-10.92,5-6.86-1.64Z" id="ell0gwy2sdrz" class="animable" style="transform-origin: 305.25px 448.771px;"></path></g></g><g id="eluugyd2eqt2i"><g style="opacity: 0.2; transform-origin: 251.85px 449.375px;" class="animable" id="el37ns802m3r9"><polygon points="266.04 450.06 259.12 450.18 249.89 452.87 239.87 452.52 237.66 447.83 247.43 448.61 258 445.88 263.86 447.18 266.04 450.06" id="elox8rbpk2j2i" class="animable" style="transform-origin: 251.85px 449.375px;"></polygon></g></g><g id="elm9jc0q964y"><g style="opacity: 0.2; transform-origin: 309.643px 432.145px;" class="animable" id="elv23vcy5d9zl"><path d="M297,439.61l9.17-.29,11.42-7.42,4.5,1s.31-5.36.15-8.22L314.6,428l-9.74,7.73-7.11.31A31.53,31.53,0,0,1,297,439.61Z" id="elk66r0i52ia8" class="animable" style="transform-origin: 309.643px 432.145px;"></path></g></g><g id="ele9d2hkmzseh"><g style="opacity: 0.2; transform-origin: 247.42px 439.445px;" class="animable" id="elc6ev5v8fivv"><polygon points="260.65 440.82 250.6 441.12 242.8 442.25 235.05 440.32 234.19 437.05 241.31 439.57 248.26 436.64 259.65 438 260.65 440.82" id="elzq6j9huc1fe" class="animable" style="transform-origin: 247.42px 439.445px;"></polygon></g></g><g id="elu9oya26ubp"><g style="opacity: 0.2; transform-origin: 244.96px 425.885px;" class="animable" id="el6526gg8o4p6"><path d="M232.57,428.11s7.34,3.3,8.5,3.15,12.93-.38,12.93-.38l3.94.46-.6-3.29-8.89-1.21-8.47.25-8-6.66Z" id="elc0gwirt1mnr" class="animable" style="transform-origin: 244.96px 425.885px;"></path></g></g><g id="el2e5tuz531w5"><g style="opacity: 0.2; transform-origin: 309.66px 420.35px;" class="animable" id="el9udrgg5x0gj"><polygon points="298.13 430.15 302.9 429.24 312.04 421.37 317.69 413.28 321.34 415.05 321.05 413.18 314.93 410.55 308.13 420.3 297.98 425.37 298.13 430.15" id="el0vcra7bs97en" class="animable" style="transform-origin: 309.66px 420.35px;"></polygon></g></g><g id="eln8kertidb8"><g style="opacity: 0.2; transform-origin: 272.425px 379.68px;" class="animable" id="el93jkm57xqpn"><polygon points="247.08 378.85 256.56 384.52 270.85 379.61 286.39 383.64 297.77 378.82 284.62 379.21 273.18 375.65 257.7 380 252.47 374.84 247.08 378.85" id="el2wgqn59ob6d" class="animable" style="transform-origin: 272.425px 379.68px;"></polygon></g></g><g id="elt6s41yzw7jd"><g style="opacity: 0.2; transform-origin: 244.295px 411.953px;" class="animable" id="elp3dt1j5m3ne"><path d="M232.17,410.85s16.34,8.67,17,9.07,7.25-.21,7.25-.21l-.12-3.81-6.06-.74-17-11.31Z" id="el09gues3i7zzj" class="animable" style="transform-origin: 244.295px 411.953px;"></path></g></g><g id="elcnncy87jixh"><g style="opacity: 0.2; transform-origin: 305.84px 403.865px;" class="animable" id="elq7in0udr3ts"><polygon points="294.2 405.5 299.46 399.82 315.12 393.93 317.48 399.5 303.89 402.71 296.23 413.8 294.2 405.5" id="elcucy1ls50i8" class="animable" style="transform-origin: 305.84px 403.865px;"></polygon></g></g><g id="eljetzeux7e3o"><g style="opacity: 0.2; transform-origin: 246.58px 398.77px;" class="animable" id="el6nsonk374da"><polygon points="234.98 397.39 244.37 406.4 256.95 406.03 258.18 401.35 247.75 401.66 237.63 391.14 234.98 397.39" id="elm3sgw13lglr" class="animable" style="transform-origin: 246.58px 398.77px;"></polygon></g></g><g id="elvbng9zqr4md"><g style="opacity: 0.2; transform-origin: 289.82px 386.64px;" class="animable" id="elnu2x4k9cumh"><path d="M271.08,389.33l5-2.16,15.54.55,13.83-7.57,3.11,3.42L292,393.13l-6.92-1.25S280.3,387.54,271.08,389.33Z" id="eldkfz77l8pso" class="animable" style="transform-origin: 289.82px 386.64px;"></path></g></g><g id="elx7cs5db1lbq"><g style="opacity: 0.2; transform-origin: 247.432px 387.887px;" class="animable" id="elncy09a6dee"><path d="M240.88,385.76s13.37,9.24,13.1,8.49-9.61-12.77-9.61-12.77Z" id="elcc14tpftcf" class="animable" style="transform-origin: 247.432px 387.887px;"></path></g></g></g><g id="freepik--Dinosaur--inject-106" class="animable" style="transform-origin: 271.195px 193.463px;"><path d="M147.41,208.62l.21-.05a7.53,7.53,0,0,0-3.35.76h0a13.27,13.27,0,0,0-2.76,1.75c-1.77,1.4-3.32,3.08-5.21,4.31a13.8,13.8,0,0,1-10,2c1.62,2.78,5.24,3.82,8.43,3.4s6.06-2,8.93-3.47a109.33,109.33,0,0,1,14.55-6A13.74,13.74,0,0,0,147.41,208.62Z" style="fill: #E74D37; transform-origin: 142.255px 214.648px;" id="elx0gwhe9jrkq" class="animable"></path><g id="elx6eqdaxr3v8"><g style="opacity: 0.3; transform-origin: 142.255px 214.648px;" class="animable" id="elwhx9hqlg6a"><path d="M147.41,208.62l.21-.05a7.53,7.53,0,0,0-3.35.76h0a13.27,13.27,0,0,0-2.76,1.75c-1.77,1.4-3.32,3.08-5.21,4.31a13.8,13.8,0,0,1-10,2c1.62,2.78,5.24,3.82,8.43,3.4s6.06-2,8.93-3.47a109.33,109.33,0,0,1,14.55-6A13.74,13.74,0,0,0,147.41,208.62Z" id="elu93yr0lfqhp" class="animable" style="transform-origin: 142.255px 214.648px;"></path></g></g><path d="M306.35,267.14s6.74,2.45,12.19.42,8.27-2.91,8.27-2.91l2.08-.14,1.43,12.85L326.55,282l-2.28-2.67-.84-7.4s-11.21,2.3-18.68.28Z" style="fill: rgb(38, 50, 56); transform-origin: 317.535px 273.255px;" id="elw7gw76c6m2p" class="animable"></path><path d="M419.84,306.48c8.06,15.65,3.37,36.19-23,49.78-13,6.69-28.23,10-40.53,8.29l-6.15-17.37,6-3.37c9.76,1.68,21.14-.33,30.82-5.31,10.75-5.54,15.12-13.33,11.23-20.89-3.62-7-11.05-8.74-23.25-2.45l-9.81,5L357.85,306l8-31.45-39.52,20.35-8.88-17.24,65-33.47,7.18,13.93-8.66,34.66C399,286.85,412.8,292.82,419.84,306.48Z" style="fill: #E74D37; transform-origin: 370.434px 304.593px;" id="el0aa9ve8fgtc" class="animable"></path><g id="el90q0l4oypuh"><g style="opacity: 0.4; transform-origin: 370.434px 304.514px;" class="animable" id="el6sl3t26e3ys"><path d="M419.84,306.48c8.06,15.65,3.37,36.19-23,49.78-13,6.69-28.23,10-33.24,8l-13.44-17,6-3.37c9.76,1.68,21.14-.33,30.82-5.31,10.75-5.54,15.12-13.33,11.23-20.89-3.62-7-11.05-8.74-23.25-2.45l-9.81,5L357.85,306l8-31.45-39.52,20.35-8.88-17.24,65-33.47,7.18,13.93-8.66,34.66C399,286.85,412.8,292.82,419.84,306.48Z" id="elt05zspmekp" class="animable" style="transform-origin: 370.434px 304.514px;"></path></g></g><path d="M413.8,309.86c8.06,15.65,3.37,36.19-23,49.78-13,6.69-28.24,10-40.53,8.29l-.12-20.75c9.76,1.69,21.15-.32,30.83-5.3,10.74-5.54,15.12-13.33,11.22-20.89-3.62-7-11-8.74-23.24-2.45l-9.82,5-7.31-14.19,8-31.45L320.25,298.3l-8.88-17.24,65-33.47,7.17,13.93-8.66,34.66C393,290.23,406.76,296.2,413.8,309.86Z" style="fill: #E74D37; transform-origin: 364.374px 307.983px;" id="el890ghr6cpab" class="animable"></path><g id="elup64p10ryr"><g style="opacity: 0.2; transform-origin: 397.005px 337.08px;" class="animable" id="elenrbl8efpq5"><path d="M389.45,335.7l12.37,4.6,2.74,3.66-1.7-7L393,330.2A16.11,16.11,0,0,1,389.45,335.7Z" id="el6vbs35ybycv" class="animable" style="transform-origin: 397.005px 337.08px;"></path></g></g><g id="elixhjflz1odq"><g style="opacity: 0.2; transform-origin: 405.162px 324.193px;" class="animable" id="el7a7grd1l7hs"><path d="M393.53,327.6s7.76.83,8.55.65,12.13-4.09,12.13-4.09l3.13,1.52a34,34,0,0,0-.25-5.57l-3.43.39-9.7,4.21-11-1.91A11.33,11.33,0,0,1,393.53,327.6Z" id="elli6ia0wjtet" class="animable" style="transform-origin: 405.162px 324.193px;"></path></g></g><g id="elnece8087u2f"><g style="opacity: 0.2; transform-origin: 399.645px 310.705px;" class="animable" id="elqsn9tw7yo8g"><path d="M390.58,318.54l10.23-3.31c.21-.68,7.59-6.79,8.26-7.51a7.27,7.27,0,0,1,2.8-1.17c-1.09-1.57-2.18-3.19-3.11-3.68l-9.58,9.78-11.76,3.24A11,11,0,0,1,390.58,318.54Z" id="el92mjc4ryhq" class="animable" style="transform-origin: 399.645px 310.705px;"></path></g></g><g id="elw2fdgll03y"><g style="opacity: 0.2; transform-origin: 389.105px 304.585px;" class="animable" id="elbh6sqq5m3xs"><path d="M389.67,293.91l-3.83,11.37-8.62,10a18.63,18.63,0,0,1,3.58-.61l5.34-4.23,8.95-6.13,5.9-7.58a28,28,0,0,0-3.36-1.39s-9.91,12-9.63,10.39,4.21-11.65,4.21-11.65l-2.54-.19" id="elbmrapbcug7d" class="animable" style="transform-origin: 389.105px 304.585px;"></path></g></g><g id="elwp3mob85ey"><g style="opacity: 0.2; transform-origin: 374.99px 306.535px;" class="animable" id="elho9eyf8bk9e"><path d="M381,294.57,380,306.19l-5.83,10-5.19,2.31,4.41-11.79,1.51-10.52A46.73,46.73,0,0,1,381,294.57Z" id="elfr5q6uyiak" class="animable" style="transform-origin: 374.99px 306.535px;"></path></g></g><g id="elcepcwsr33hj"><g style="opacity: 0.2; transform-origin: 362.07px 307.99px;" class="animable" id="elxujc54u6k7l"><polygon points="363.08 307.68 353.63 313.13 355.74 317.03 365.53 309.99 370.51 298.95 363.08 307.68" id="elz7843qeany" class="animable" style="transform-origin: 362.07px 307.99px;"></polygon></g></g><g id="elx5lvl5tqfx"><g style="opacity: 0.2; transform-origin: 364.485px 298.22px;" class="animable" id="elfthifkguxir"><polygon points="376.11 291.48 364.32 296.62 351.98 308.73 354.02 300.7 364.81 292.12 376.99 287.71 376.11 291.48" id="elz7jmzp5aq9l" class="animable" style="transform-origin: 364.485px 298.22px;"></polygon></g></g><g id="elz1e5snub23b"><g style="opacity: 0.2; transform-origin: 369.45px 278.72px;" class="animable" id="elbea02txjqcr"><path d="M378.81,280.4s-12.42,5.4-14.35,5.7-8,5-8,5l1.7-6.7,10-3.59,14.28-14.47-1.29,4.83-6.32,8.34,4.92-2.26Z" id="eldud6r2sv24v" class="animable" style="transform-origin: 369.45px 278.72px;"></path></g></g><g id="elyxppppl7skn"><g style="opacity: 0.2; transform-origin: 341.655px 283.131px;" class="animable" id="elklgsd1gegd"><path d="M317.74,293.22s13.49.13,15.84-1.55,7.91-6.52,7.91-6.52l19.57-7.73,8.56-4.38-23.27,5.81s-13.07,4.2-12.93,4.52-5.43,4.81-5.43,4.81l-14.3-2.62Z" id="elqnlfhy6rch" class="animable" style="transform-origin: 341.655px 283.131px;"></path></g></g><g id="elktm8wgvcaer"><g style="opacity: 0.2; transform-origin: 345.67px 272.775px;" class="animable" id="eltspu192ezu"><polygon points="321.3 275.95 334.93 278.84 353.32 269.88 370.04 268.44 356.34 266.71 342.06 272.35 329.93 271.51 321.3 275.95" id="eljt0frbzmmy" class="animable" style="transform-origin: 345.67px 272.775px;"></polygon></g></g><g id="elzoeh0xwmsto"><g style="opacity: 0.2; transform-origin: 377.365px 353.08px;" class="animable" id="elwb9n3ylaxqr"><path d="M350.17,361.56s7.74-6.18,8.49-6.39,17.79,1.1,17.79,1.1,14.64-7.28,15.17-7.51,12.94,1.38,12.94,1.38l-12-5.54-18.22,8.19L360.18,348l-10,6.26Z" id="el475a7xqdgwn" class="animable" style="transform-origin: 377.365px 353.08px;"></path></g></g><g id="el3cq72bpn6yv"><g style="opacity: 0.2; transform-origin: 374.315px 361.76px;" class="animable" id="el5wdro4sxm1"><path d="M350.3,367.86s5.68-5.73,7.8-6,10.07.48,10.07.48l9.71-4.38,10.37-2.48,10.08-.28s-4.81,3.11-7,4.16l-7-.3-12.47,4.06-6.82,3-5.88-1.6-5.68,3.8Z" id="el93m2jffz4z" class="animable" style="transform-origin: 374.315px 361.76px;"></path></g></g><g id="elwhboz2cj52o"><g style="opacity: 0.2; transform-origin: 366.725px 259.73px;" class="animable" id="elwtupks78sbs"><polygon points="354.02 259.44 363.01 262.52 379.43 260.86 372.11 258.12 363.96 260.2 358 256.94 354.02 259.44" id="elqlmblnzdef" class="animable" style="transform-origin: 366.725px 259.73px;"></polygon></g></g><path d="M268.75,215.77l-6.35-32s-31.93-60-40.32-81.3-2-83.92-2-83.92C175.81,66.42,183.9,131.51,183.9,131.51,217,168.78,211.55,208,211.55,208ZM204.44,93.51a2,2,0,0,1-.73-3.16l2-2.31c1.94-2.26,5.47-2,7.69-2.08s3,8.9-.38,9.64C210.86,96.06,207,94.62,204.44,93.51Z" style="fill: rgb(69, 90, 100); transform-origin: 226.035px 117.16px;" id="elqz4x46kmkab" class="animable"></path><g id="el0ryggz76n2y"><g style="opacity: 0.3; transform-origin: 236.045px 186.358px;" class="animable" id="elro2fl0bwem"><path d="M212.19,208s23.15,4,26.74,1.3,10.59-11.74,10.59-11.74L260.3,180l-9.05-17.52s2.25,24.62-8.62,30.69-30.84,8.19-30.84,8.19Z" id="el3ghlw9sm1s7" class="animable" style="transform-origin: 236.045px 186.358px;"></path></g></g><g id="eljtd01ydjqs"><g style="opacity: 0.2; transform-origin: 226.35px 183.792px;" class="animable" id="eledrwi7m82i7"><path d="M212,195.27a186.06,186.06,0,0,0,29.62-20c1.08-.89,2.23-2.44,1.32-3.51-.66-.78-1.9-.56-2.88-.27L211.17,180a2.57,2.57,0,0,0-1.47.82,2.62,2.62,0,0,0-.13,2l2.85,13.54" style="fill: rgb(255, 255, 255); transform-origin: 226.35px 183.792px;" id="elkijdch0e4fm" class="animable"></path></g></g><g id="elkqq70vkj2y"><g style="opacity: 0.2; transform-origin: 227.278px 149.788px;" class="animable" id="el71vwmj0p4gd"><path d="M236.86,135.37c-2.41,5.23-5.25,11-10,14.71s-10.4,6.18-16.12,8.29c-1.51.56-3.32,1.51-3.18,3s2.09,2.15,3.68,2.35a61.23,61.23,0,0,0,33.61-5.22,3.59,3.59,0,0,0,2.09-1.8,3.21,3.21,0,0,0-.43-2.34c-2.21-4.58-6.59-12.3-9.63-19" style="fill: rgb(255, 255, 255); transform-origin: 227.278px 149.788px;" id="el8bv3riuvg7c" class="animable"></path></g></g><g id="el8do69yq5sce"><g style="opacity: 0.2; transform-origin: 199.372px 138.239px;" class="animable" id="el9clqfuwp1cb"><path d="M198.6,151.09c3.49,6.46,9.21-10.9,13.36-17a13.29,13.29,0,0,0,2.26-4.45,4.8,4.8,0,0,0-1.19-4.63,5,5,0,0,0-4.64-.78,19.43,19.43,0,0,0-4.39,2.15,39,39,0,0,1-19.65,5.09S195.25,144.9,198.6,151.09Z" style="fill: rgb(255, 255, 255); transform-origin: 199.372px 138.239px;" id="elh2rdphpxgo5" class="animable"></path></g></g><g id="elewqcsdyx2vo"><g style="opacity: 0.2; transform-origin: 211.085px 107.935px;" class="animable" id="elrxs0immpbc"><path d="M221.38,100.54c-3.62,1-7.37,4.1-11.4,5s-8.23,1.16-12,2.72c-1.53.62-3.21,1.89-2.89,3.51s2.1,2.11,3.62,2.38a80.24,80.24,0,0,0,28.41-.18c-2.2-5-3.83-8.11-5.69-13.41" style="fill: rgb(255, 255, 255); transform-origin: 211.085px 107.935px;" id="el124tyhtns1i" class="animable"></path></g></g><g id="eluoqvds21y3s"><g style="opacity: 0.2; transform-origin: 198.501px 84.0377px;" class="animable" id="elm0s3ncxwmo"><path d="M185.14,94.59A119.27,119.27,0,0,0,210.06,78a5.45,5.45,0,0,0,1.64-2,1.91,1.91,0,0,0-.63-2.32,2.83,2.83,0,0,0-1.95-.06l-20.64,4.33c-1.44,5.8-2.56,11.38-3.34,16.65" style="fill: rgb(255, 255, 255); transform-origin: 198.501px 84.0377px;" id="el5rywl3opt4e" class="animable"></path></g></g><g id="elmolwbnq9rw"><g style="opacity: 0.2; transform-origin: 209.71px 55.15px;" class="animable" id="elt4169783yct"><path d="M217.7,61.57a32,32,0,0,1-16.3-6c4.33-4.12,10.64-5.59,16.62-6.88-.25,3.92-.28,9.13-.32,12.92" style="fill: rgb(255, 255, 255); transform-origin: 209.71px 55.15px;" id="elxdoxq6y6n0b" class="animable"></path></g></g><path d="M213.54,207.52c-.68-13.08-1.4-26.35-5.61-38.75-4.79-14.07-13.88-26.32-24.15-37.07,17.64,20.8,27,49,25.82,76.29Z" style="fill: rgb(38, 50, 56); transform-origin: 198.66px 169.845px;" id="elfu2wj83o6c" class="animable"></path><path d="M433.87,73.59c-65-4-114.47,17.48-149.69,62.37,0,0-25.84,51.61-36.65,64.59-10.54,12.66-32,17.48-32,17.48l58.7,27.83,6.19,9.13,25.8,17.21s10.11-17.85,3.72-36.15c-13.33-38.24,9.38-55.83,9.38-55.83A94.89,94.89,0,0,1,365.08,126C379.43,94.59,433.87,73.59,433.87,73.59Zm-119.29,96.1a2.27,2.27,0,0,1-3-.07,2.32,2.32,0,0,1-.13-3l.45-.4a2.21,2.21,0,0,1,2.68,3.49Zm6.35-8.89c-2.16.47-6-1-8.58-2.08a2,2,0,0,1-.72-3.17l2-2.3c1.94-2.26,5.47-2,7.69-2.08S324.32,160.07,320.93,160.8Z" style="fill: rgb(69, 90, 100); transform-origin: 324.7px 172.659px;" id="eli9r29y8q8m" class="animable"></path><g id="elyvptiwbfm9d"><g style="opacity: 0.2; transform-origin: 326.021px 116.895px;" class="animable" id="el4focgnsm5x4"><path d="M303.57,123.36a8.2,8.2,0,0,0,6.05,2.6,22.41,22.41,0,0,0,6.67-1.11,174,174,0,0,0,30-11.51c1.24-.61,2.7-1.88,2-3.08a2.62,2.62,0,0,0-2.23-.94c-6.52-.5-15-1-21.54-1.49Z" style="fill: rgb(255, 255, 255); transform-origin: 326.021px 116.895px;" id="elzuicohodg7g" class="animable"></path></g></g><g id="el7hwoklrgu5h"><g style="opacity: 0.2; transform-origin: 396.962px 81.735px;" class="animable" id="el0d9cy2tb64b9"><path d="M398,86s-11.28-5.7-8.84-6.75,15.95-1.78,15.95-1.78Z" style="fill: rgb(255, 255, 255); transform-origin: 396.962px 81.735px;" id="elkq9l3vzo3b9" class="animable"></path></g></g><g id="elh46vofl9b9o"><g style="opacity: 0.2; transform-origin: 363.854px 97.0799px;" class="animable" id="elg52k979yg3e"><path d="M349.32,91.6A40.48,40.48,0,0,0,374.51,108a3.76,3.76,0,0,0,3.13-.32c1.33-1.1.66-3.23-.11-4.77q-3.31-6.6-6.64-13.21a7.11,7.11,0,0,0-2.71-3.4c-1.56-.82-2.73,0-4.87.7-4.76,1.62-14,4.59-14,4.59" style="fill: rgb(255, 255, 255); transform-origin: 363.854px 97.0799px;" id="elumdytxyqsn" class="animable"></path></g></g><path d="M324.27,270.26a12.52,12.52,0,0,1-2.36-.53s-9.92,5.09-13.8,3.56-19.59-15.86-17.89-25.66h0c5.34-5.75,8.57-14.27-4.24-23.41-23-16.37-68.85-16.62-68.85-16.62a133,133,0,0,0-16.26.17c-8.5.64-15.57-3.19-18-4.6s-11.34-8.83-11.34-8.83,30-20.05,29.43-20.67-43.35,15.06-43.35,15.06S104,215,98.32,220.29c-4.93,4.6-3.31,5.33-3.31,5.33,23.76-13.2,50.85-16.57,52.93-16.72a22.26,22.26,0,0,1,6.29.77s-3.91,1.18-16.92,9.41c-9,5.67-24.41,14.68-27.91,17.38s-3.27,3.09-1,3.55,41.56-15.46,47.26-17.72c6.54-2.58,16.18-5.77,16.18-5.77,9.34,8.43,31.59,19.71,31.59,19.71s19.94,5,34.55,3.93c15.52.71,27.16,2.69,40,11.62,0,0,13.62,22.48,23.6,25.75a25.13,25.13,0,0,0,17.46-.3l1.12,7.71,2.1,2.33,4.65-2.74S324.58,281.78,324.27,270.26Z" style="fill: rgb(69, 90, 100); transform-origin: 210.833px 230.461px;" id="els2sy02oldm" class="animable"></path><path d="M161.5,200.29a4.2,4.2,0,1,1-4.46-3.91A4.19,4.19,0,0,1,161.5,200.29Z" style="fill: rgb(255, 255, 255); transform-origin: 157.309px 200.571px;" id="el8khfy41bc63" class="animable"></path><path d="M160.76,200.32a3.46,3.46,0,1,1-3.68-3.22A3.45,3.45,0,0,1,160.76,200.32Z" style="fill: rgb(38, 50, 56); transform-origin: 157.308px 200.552px;" id="elc779xgygryv" class="animable"></path><path d="M120,210.66c-.17.05,8-5.57,8.3-5.06S128.1,208.48,120,210.66Z" style="fill: rgb(38, 50, 56); transform-origin: 124.18px 208.114px;" id="el911udaul5l6" class="animable"></path><path d="M323.38,287.22s2.94,3.69,3.14,3.59,4.77-.05,4.77-.05L325,285.47Z" style="fill: rgb(38, 50, 56); transform-origin: 327.335px 288.141px;" id="el39qe3fb5nrp" class="animable"></path><path d="M324.7,285.81s3.1,3.47,3.3,3.37,4.76-.06,4.76-.06l-6.27-5.28Z" style="fill: rgb(38, 50, 56); transform-origin: 328.73px 286.511px;" id="elxepzecjfe3" class="animable"></path><path d="M326,284.81s3.94,2.6,4.1,2.45,4.51-1.54,4.51-1.54l-7.47-3.17Z" style="fill: rgb(38, 50, 56); transform-origin: 330.305px 284.908px;" id="eltu0jyeb6rxl" class="animable"></path><g id="el2oykyoi4eu3"><g style="opacity: 0.7; transform-origin: 202.516px 228.06px;" class="animable" id="ely3mcjsm22sb"><path d="M196.93,227.59a2,2,0,0,0,.73,3.16c2.55,1.11,6.45,2.55,8.62,2.08,3.42-.73,2.62-9.72.39-9.63s-5.78-.18-7.74,2.08C198.22,226.11,197.53,226.91,196.93,227.59Z" style="fill: rgb(255, 255, 255); transform-origin: 202.516px 228.06px;" id="elxets1friie" class="animable"></path></g></g><g id="eltpgd3622xur"><g style="opacity: 0.2; transform-origin: 178.085px 207.792px;" class="animable" id="elxm31avb72vp"><path d="M175.31,210.43a1.17,1.17,0,0,0,1.7.83c1.44-.76,3.52-2,4.09-3.16.92-1.82-3.46-4.74-4.23-3.69s-2.2,2.56-1.88,4.27C175.11,209.31,175.22,209.92,175.31,210.43Z" style="fill: rgb(255, 255, 255); transform-origin: 178.085px 207.792px;" id="el10upbataljce" class="animable"></path></g></g><g id="elpv5vl38nhlc"><g style="opacity: 0.2; transform-origin: 167.08px 206.98px;" class="animable" id="eldi2b6wnf4b8"><path d="M161.5,206.51a2,2,0,0,0,.72,3.16c2.55,1.11,6.46,2.55,8.63,2.08,3.41-.73,2.61-9.72.38-9.63s-5.78-.18-7.74,2.08Z" style="fill: rgb(255, 255, 255); transform-origin: 167.08px 206.98px;" id="el28eww5oe4ar" class="animable"></path></g></g><g id="el9qoheaf191b"><g style="opacity: 0.7; transform-origin: 214.94px 232.645px;" class="animable" id="el6i0vt0y83co"><path d="M216.48,231.18a3.4,3.4,0,0,0-1-.93,1.78,1.78,0,0,0-2.59.91,2.68,2.68,0,0,0-.11,1.57,3.89,3.89,0,0,0,2,2.28,1.79,1.79,0,0,0,1.45.22,1.64,1.64,0,0,0,.87-1.24A3.56,3.56,0,0,0,216.48,231.18Z" style="fill: rgb(255, 255, 255); transform-origin: 214.94px 232.645px;" id="elxt7krz1logi" class="animable"></path></g></g><g id="eldygpfltshf4"><g style="opacity: 0.7; transform-origin: 201.949px 220.497px;" class="animable" id="elbp9ee426tsf"><path d="M202.76,219.74a1.94,1.94,0,0,0-.54-.49.93.93,0,0,0-1.35.48,1.42,1.42,0,0,0-.05.81,2,2,0,0,0,1.05,1.19.94.94,0,0,0,.76.11.87.87,0,0,0,.45-.64A1.88,1.88,0,0,0,202.76,219.74Z" style="fill: rgb(255, 255, 255); transform-origin: 201.949px 220.497px;" id="elqil7sco7p1" class="animable"></path></g></g><g id="elnm17m1ejf7r"><g style="opacity: 0.7; transform-origin: 193.669px 224.263px;" class="animable" id="elb657v6fgnll"><path d="M190.9,223.12c.08,1.06-.07,3.08.67,3.51s1,.27,2.31,0,2.78-.62,2.53-2.14.07-2.35-.91-2.76S190.85,222.25,190.9,223.12Z" style="fill: rgb(255, 255, 255); transform-origin: 193.669px 224.263px;" id="elfjcahvs3jp" class="animable"></path></g></g><g id="elvee9jt0s54"><g style="opacity: 0.7; transform-origin: 209.44px 233.672px;" class="animable" id="elliyphol417i"><path d="M208.35,233.23c0,.41,0,1.2.26,1.37s.38.1.91,0,1.09-.24,1-.84,0-.92-.36-1.08S208.33,232.88,208.35,233.23Z" style="fill: rgb(255, 255, 255); transform-origin: 209.44px 233.672px;" id="el0i1mbe4dv2t6" class="animable"></path></g></g><g id="eltst561rzzvd"><g style="opacity: 0.2; transform-origin: 144.858px 202.191px;" class="animable" id="elu2m4ow83mfq"><path d="M142.09,201.05c.07,1.06-.07,3.08.66,3.51s1,.26,2.32,0,2.78-.62,2.53-2.14.06-2.35-.91-2.76S142,200.18,142.09,201.05Z" style="fill: rgb(255, 255, 255); transform-origin: 144.858px 202.191px;" id="elp2jd543te2" class="animable"></path></g></g><path d="M129.94,205c.06,0,.19.39.06,1.05a4.11,4.11,0,0,1-1.31,2.17,7.26,7.26,0,0,1-2.14,1.29c-.59.24-1,.34-1,.28s.3-.27.84-.59a11.89,11.89,0,0,0,2-1.34,4.79,4.79,0,0,0,1.3-1.9C129.87,205.39,129.86,205,129.94,205Z" style="fill: rgb(38, 50, 56); transform-origin: 127.803px 207.404px;" id="el5c6oryr0vq7" class="animable"></path><path d="M108.83,239.74s.08-.07.26-.19l.78-.5,3-1.91,11.24-6.92L140.85,220A82.77,82.77,0,0,1,151,214.43a30.58,30.58,0,0,1,5.85-1.91,23.23,23.23,0,0,1,3.12-.46,8.2,8.2,0,0,0,1.52-.19,1.39,1.39,0,0,0,1-.79,1.24,1.24,0,0,0-.32-1.22,2.34,2.34,0,0,0-1.26-.64,11.45,11.45,0,0,0-3-.1,18,18,0,0,0-5.8,1.57,85.65,85.65,0,0,0-10,5.7l-16.66,10.29-11.25,6.89-3.08,1.86-.8.47-.29.15a2.34,2.34,0,0,1,.26-.19l.78-.51,3-1.94,11.18-7L141.86,216a85.18,85.18,0,0,1,10.06-5.76,18.61,18.61,0,0,1,6-1.62,12.23,12.23,0,0,1,3.19.11,2.88,2.88,0,0,1,1.51.79,1.77,1.77,0,0,1,.43,1.71,1.87,1.87,0,0,1-1.37,1.1,9.36,9.36,0,0,1-1.61.21A22.34,22.34,0,0,0,157,213a30.07,30.07,0,0,0-5.76,1.87,84.38,84.38,0,0,0-10.12,5.51l-16.75,10.13L113,237.31l-3.09,1.82-.81.47Z" style="fill: rgb(38, 50, 56); transform-origin: 135.973px 224.152px;" id="elm7m181vcw9" class="animable"></path><path d="M114.6,236.05c-.06.12-.75-.2-1-1s0-1.51.13-1.45.08.63.33,1.29S114.68,235.93,114.6,236.05Z" style="fill: rgb(38, 50, 56); transform-origin: 114.052px 234.835px;" id="el2vvw6reh4vw" class="animable"></path><path d="M119,233.15c0,.13-.75,0-1.15-.76s-.12-1.43,0-1.37.12.58.43,1.14S119.08,233,119,233.15Z" style="fill: rgb(38, 50, 56); transform-origin: 118.326px 232.105px;" id="elmap4jmh1o6h" class="animable"></path><path d="M124.18,230.34c-.13,0-.39-.51-.8-1.11s-.81-1.06-.72-1.17.67.22,1.13.9S124.31,230.31,124.18,230.34Z" style="fill: rgb(38, 50, 56); transform-origin: 123.444px 229.19px;" id="el5y7yghvw7ka" class="animable"></path><path d="M128.94,227.24c-.13,0-.44-.45-1-.94s-1-.79-1-.93.72,0,1.31.58S129.07,227.2,128.94,227.24Z" style="fill: rgb(38, 50, 56); transform-origin: 127.958px 226.28px;" id="elcipee7tg90e" class="animable"></path><path d="M134.68,224c-.11.08-.53-.33-1.05-.81s-1-.86-.9-1,.66.1,1.23.62S134.79,223.9,134.68,224Z" style="fill: rgb(38, 50, 56); transform-origin: 133.711px 223.08px;" id="elfaq2fm5htf" class="animable"></path><path d="M138.88,221.69c-.14,0-.36-.58-.81-1.21s-.95-1-.87-1.17.75.16,1.27.89S139,221.68,138.88,221.69Z" style="fill: rgb(38, 50, 56); transform-origin: 138.067px 220.478px;" id="el7fntulf7hzc" class="animable"></path><path d="M145.84,217.13c-.14,0-.28-.62-.67-1.26s-.87-1.07-.79-1.19.75.17,1.21.94S146,217.13,145.84,217.13Z" style="fill: rgb(38, 50, 56); transform-origin: 145.162px 215.892px;" id="elm3im6mhvpph" class="animable"></path><path d="M151.88,214.12c-.13,0-.13-.62-.45-1.25s-.78-1-.72-1.11.77.1,1.16.9S152,214.17,151.88,214.12Z" style="fill: rgb(38, 50, 56); transform-origin: 151.391px 212.928px;" id="eldw2zcduqyhg" class="animable"></path><path d="M158,212.5c-.14,0,0-.9-.45-1.83s-1.1-1.46-1-1.58,1,.28,1.48,1.39S158.08,212.55,158,212.5Z" style="fill: rgb(38, 50, 56); transform-origin: 157.397px 210.786px;" id="eloakig57ujbg" class="animable"></path><path d="M164.37,201.44c0,.05-.23-.06-.61-.05a2.48,2.48,0,0,0-1.45.67,14,14,0,0,0-1.51,2,4,4,0,0,1-2.79,1.59,5,5,0,0,1-3.14-.7,6.36,6.36,0,0,1-1.91-1.78,5.46,5.46,0,0,1-1.06-2.12c.08,0,.44.8,1.33,1.91a6.63,6.63,0,0,0,1.86,1.6,4.73,4.73,0,0,0,2.86.6,3.55,3.55,0,0,0,2.49-1.38,11.71,11.71,0,0,1,1.65-2,2.45,2.45,0,0,1,1.67-.59C164.2,201.25,164.38,201.43,164.37,201.44Z" style="fill: rgb(38, 50, 56); transform-origin: 158.135px 203.365px;" id="elgg8gtzog32" class="animable"></path><path d="M162.79,199.77a21.37,21.37,0,0,1-1.63-1.82,6.47,6.47,0,0,0-2.07-1.5,3.53,3.53,0,0,0-3-.06,10.15,10.15,0,0,0-2.41,2,4.78,4.78,0,0,1-2.33,1.42,2.46,2.46,0,0,1-1.82-.31c-.38-.26-.47-.51-.45-.52s.18.17.54.35a2.33,2.33,0,0,0,1.65.14,4.56,4.56,0,0,0,2.09-1.4,9.56,9.56,0,0,1,2.52-2.16,3.91,3.91,0,0,1,3.35.09,6.48,6.48,0,0,1,2.13,1.68,13.09,13.09,0,0,1,1.07,1.46A2.15,2.15,0,0,1,162.79,199.77Z" style="fill: rgb(38, 50, 56); transform-origin: 155.934px 197.722px;" id="eld2a8j574opv" class="animable"></path><path d="M164.89,202.22s0,.25-.17.65a6.76,6.76,0,0,1-.9,1.58A7.88,7.88,0,0,1,153,206.24a7,7,0,0,1-1.37-1.21c-.27-.33-.39-.53-.37-.55s.65.7,1.92,1.47a8,8,0,0,0,10.42-1.71A20.54,20.54,0,0,0,164.89,202.22Z" style="fill: rgb(38, 50, 56); transform-origin: 158.074px 204.931px;" id="eljgvk0ndzexc" class="animable"></path><path d="M116.56,211.77a32.23,32.23,0,0,1,4.66-3.17,32.22,32.22,0,0,1,4.92-2.75,32,32,0,0,1-4.66,3.17A32.71,32.71,0,0,1,116.56,211.77Z" style="fill: rgb(38, 50, 56); transform-origin: 121.35px 208.81px;" id="elqm2zxwk6be9" class="animable"></path><g id="elznk5699ud6b"><g style="opacity: 0.3; transform-origin: 268.285px 247.879px;" class="animable" id="el9lhxtxw2eus"><path d="M229.91,225.74c12.55,5.08,27,4.06,39.64,9,8.39,3.26,15.57,9.15,21.51,15.92A162.88,162.88,0,0,1,306.66,272c-2.44-10-4.86-20.06-10-29S283,226.56,272.94,224.34c-13.78-3-33.95,6.86-42.53,1.14" id="elf2hrm1rsru" class="animable" style="transform-origin: 268.285px 247.879px;"></path></g></g><path d="M306.66,272a.77.77,0,0,1-.08-.26q-.09-.3-.21-.78c-.19-.72-.44-1.72-.77-3-.67-2.61-1.66-6.38-3.15-11a75.91,75.91,0,0,0-6.84-15.37,38.77,38.77,0,0,0-14.67-14.09,31.32,31.32,0,0,0-10.05-3.34,38.05,38.05,0,0,0-9.9.08c-6.31.74-11.88,2.16-16.65,2.89a34.56,34.56,0,0,1-6.5.42,17.54,17.54,0,0,1-4.85-.88,12.51,12.51,0,0,1-2.8-1.33l-.66-.47-.22-.17a16.31,16.31,0,0,0,3.74,1.79,17.67,17.67,0,0,0,4.8.78,33.63,33.63,0,0,0,6.44-.49c4.73-.76,10.3-2.22,16.65-3a38.47,38.47,0,0,1,10-.11,31.66,31.66,0,0,1,10.21,3.39A38.93,38.93,0,0,1,296,241.41a73.7,73.7,0,0,1,6.78,15.51c1.46,4.59,2.4,8.38,3,11,.3,1.31.53,2.33.67,3l.16.79A.8.8,0,0,1,306.66,272Z" style="fill: rgb(38, 50, 56); transform-origin: 267.985px 247.698px;" id="elmnyz6781c8" class="animable"></path><g id="elc6xsj4w1yjd"><g style="opacity: 0.2; transform-origin: 265.614px 179.57px;" class="animable" id="elxp640u9ivqa"><path d="M230.2,225.33c11-3.87,22.41-8.23,30.22-16.91,12.65-14,12.94-36.09,25.43-50.29,1.07-1.22,2.39-2.44,4-2.52,1,0,2.06.4,3.1.42,2.38,0,4.17-2.09,5.59-4,2.56-3.47,5.13-9.51,2.79-13.14-.77-1.19-8.26,1.89-8.9.63s3-5.33,1.88-5.71c-8.22,9.07-11.16,13.28-16.84,20.16-6.93,8.4-9.27,20.42-13.86,30.28a86.76,86.76,0,0,1-34.63,38" id="ele4oh9mpkpc7" class="animable" style="transform-origin: 265.614px 179.57px;"></path></g></g><path d="M219.47,219.42c1.75,3.49,5,5.63,10.44,5.91,0,0,27.75-19.55,30-21.37s19.73-49.08,22-51.63,9.26-13.25,9.26-13.25l.87-4.46s-12.29,10.92-13.2,12.57-24.71,45.66-31.31,51.91C240,206.22,231.28,218.82,219.47,219.42Z" style="fill: rgb(38, 50, 56); transform-origin: 255.755px 179.975px;" id="elahomyrxqzpw" class="animable"></path><path d="M284.33,144c.34-.18,7.72-9.33,7.72-9.33,33.21-40,82.34-60.68,141.82-61C375.64,78.06,325.38,97.21,293.47,136l-5.72,7.75Z" style="fill: rgb(38, 50, 56); transform-origin: 359.1px 108.835px;" id="ellpzmzxg0xul" class="animable"></path><path d="M365.08,126a6.62,6.62,0,0,1-.8.27l-2.31.7c-1,.31-2.24.65-3.69,1s-3.08.82-4.91,1.24c-7.3,1.77-17.48,3.71-28.72,5.86-5.62,1.09-11,2.19-15.79,3.28-2.41.59-4.71,1.1-6.84,1.68l-3.08.81-2.82.82c-1.81.5-3.42,1-4.83,1.5l-2,.63-1.64.6-2.27.81a4.52,4.52,0,0,1-.81.25,7.82,7.82,0,0,1,.77-.34l2.25-.9,1.62-.64,2-.67c1.41-.49,3-1,4.82-1.57l2.82-.86,3.08-.83c2.13-.6,4.43-1.13,6.83-1.73,4.84-1.11,10.18-2.23,15.8-3.32,11.25-2.15,21.44-4,28.74-5.72,1.83-.4,3.48-.81,4.93-1.16s2.69-.66,3.7-.94l2.33-.61A4.18,4.18,0,0,1,365.08,126Z" style="fill: rgb(38, 50, 56); transform-origin: 324.825px 135.725px;" id="elbojumv1rn8" class="animable"></path><path d="M319.34,180.22a5.84,5.84,0,0,1-.68-.35c-.44-.23-1.06-.63-1.9-1.06a55.12,55.12,0,0,0-7.31-3.25A44.23,44.23,0,0,0,297.93,173c-1.11-.13-2.25-.1-3.41-.14s-2.35.09-3.55.28a25.09,25.09,0,0,0-7.18,2,28.69,28.69,0,0,0-11.12,9,56.31,56.31,0,0,0-3.6,5.21c-1.06,1.68-2,3.29-2.84,4.75-1.69,2.93-3.06,5.31-4,6.93-.49.77-.87,1.39-1.16,1.85a3.27,3.27,0,0,1-.44.62,6.42,6.42,0,0,1,.35-.67l1.08-1.9,3.91-7c.84-1.48,1.74-3.1,2.8-4.8a55.49,55.49,0,0,1,3.59-5.27,28.79,28.79,0,0,1,11.27-9.16,25.5,25.5,0,0,1,7.32-2,34.27,34.27,0,0,1,3.6-.26c1.18,0,2.34,0,3.46.15a43,43,0,0,1,11.6,2.7,48.54,48.54,0,0,1,7.28,3.41c.83.45,1.44.88,1.87,1.13A3.27,3.27,0,0,1,319.34,180.22Z" style="fill: rgb(38, 50, 56); transform-origin: 289.985px 187.97px;" id="elb877xpxozll" class="animable"></path><path d="M223,219.21a3.23,3.23,0,0,1-1.39.52,9.84,9.84,0,0,1-3.59.12,10.2,10.2,0,0,1-3.39-1.17c-.79-.47-1.2-.86-1.17-.91a18.2,18.2,0,0,0,4.64,1.59A18.67,18.67,0,0,0,223,219.21Z" style="fill: rgb(38, 50, 56); transform-origin: 218.229px 218.865px;" id="elwepoewa07ak" class="animable"></path><path d="M178.42,213.19s-.13.1-.41.25-.7.34-1.25.58c-1.09.48-2.68,1.14-4.66,1.93-3.95,1.59-9.43,3.72-15.5,6L141,227.84l-4.73,1.74c-1.12.4-1.72.64-1.74.61s.13-.09.42-.23.71-.32,1.25-.56c1.1-.46,2.7-1.1,4.68-1.89,4-1.56,9.45-3.68,15.52-6Z" style="fill: rgb(38, 50, 56); transform-origin: 156.474px 221.691px;" id="elgt0a4pb5kzt" class="animable"></path><path d="M437.17,307.51a9.38,9.38,0,0,1,.5,1.57c.15.51.32,1.13.48,1.87s.36,1.57.51,2.5a57.77,57.77,0,0,1,.79,6.61,64,64,0,0,1-.09,8.15,60.88,60.88,0,0,1-1.23,8.05,54.21,54.21,0,0,1-1.84,6.4c-.29.9-.63,1.69-.91,2.39s-.54,1.29-.77,1.76a11.39,11.39,0,0,1-.74,1.47,10.37,10.37,0,0,1,.57-1.54c.2-.49.44-1.09.69-1.79s.56-1.5.83-2.4a61.73,61.73,0,0,0,1.73-6.38,66.36,66.36,0,0,0,1.18-8,69.47,69.47,0,0,0,.13-8.09,65,65,0,0,0-.68-6.57c-.12-.93-.31-1.77-.44-2.5s-.27-1.37-.39-1.88A12.24,12.24,0,0,1,437.17,307.51Z" style="fill: rgb(38, 50, 56); transform-origin: 436.704px 327.895px;" id="elo8w56hv1iq" class="animable"></path><path d="M445.26,338c-.08,0,.38-1.41.89-3.7a42,42,0,0,0,0-18.18c-.5-2.29-1-3.68-.88-3.7a4,4,0,0,1,.4.94,27.12,27.12,0,0,1,.82,2.68,37.29,37.29,0,0,1,0,18.34,26,26,0,0,1-.82,2.67A4.2,4.2,0,0,1,445.26,338Z" style="fill: rgb(38, 50, 56); transform-origin: 446.443px 325.21px;" id="elzifpcv3th3h" class="animable"></path><path d="M311.15,317.26a2,2,0,0,1-.71-.07,10,10,0,0,1-1.86-.49,13.55,13.55,0,0,1-2.58-1.24,14.93,14.93,0,0,1-4.91-5,13.32,13.32,0,0,1-1.21-2.59,9.67,9.67,0,0,1-.48-1.87c-.07-.45-.09-.7,0-.7s.26,1,.85,2.45a15.54,15.54,0,0,0,1.28,2.48,17.63,17.63,0,0,0,2.12,2.66,17.93,17.93,0,0,0,2.64,2.15,16.16,16.16,0,0,0,2.47,1.3C310.18,317,311.16,317.17,311.15,317.26Z" style="fill: rgb(38, 50, 56); transform-origin: 305.245px 311.283px;" id="elnvow12wefo8" class="animable"></path><path d="M315.91,315.72a8,8,0,0,1-2.38-.75,17.66,17.66,0,0,1-5-3.36,17.94,17.94,0,0,1-3.61-4.85,8.57,8.57,0,0,1-.87-2.35c.08,0,.43.86,1.18,2.18a19.94,19.94,0,0,0,8.48,8.06C315,315.34,315.94,315.64,315.91,315.72Z" style="fill: rgb(38, 50, 56); transform-origin: 309.98px 310.065px;" id="el2hwf9i299bb" class="animable"></path></g><g id="freepik--Sign--inject-106" class="animable" style="transform-origin: 117.665px 370.74px;"><path d="M96.43,265V383.74L83,370.73l-6.28,3s14,19,19.67,26.45v76.3H113V265Z" style="fill: rgb(69, 90, 100); transform-origin: 94.86px 370.74px;" id="elq87mzey3w1r" class="animable"></path><polygon points="211.12 315.94 34.88 354.41 24.67 307.6 200.9 269.13 204.41 285.23 197.27 293.58 206.59 295.19 211.12 315.94" style="fill: rgb(69, 90, 100); transform-origin: 117.895px 311.77px;" id="elc2cticc0tms" class="animable"></polygon><path d="M200.9,269.13s-.29.09-.88.23l-2.6.61-10,2.26-37.25,8.25L24.75,308l.29-.45c1.59,7.66,3.27,15.76,5,24L34.9,355l-.45-.29L160.12,327l37.38-8.16,10.1-2.17,2.62-.55.9-.16s-.3.09-.88.23l-2.61.62-10.07,2.3-37.34,8.38-125.61,28-.37.08-.08-.37-4.88-23.5c-1.71-8.21-3.39-16.3-5-24l-.07-.37.36-.08L150,280l37.31-8,10.07-2.13,2.62-.54Z" style="fill: rgb(38, 50, 56); transform-origin: 117.665px 312.35px;" id="elr7szjm75tx" class="animable"></path><path d="M207.33,302.68l-1.84.29c-1.21.22-3,.37-5.27.85a132.65,132.65,0,0,0-18.9,5.28c-7.83,2.72-16.91,6.61-27.1,10.69-5.09,2-10.49,4-16.19,5.85a106,106,0,0,1-18,4.11,98.58,98.58,0,0,1-18.47.68c-6-.25-11.7-.79-17.17-1.17s-10.68-.68-15.55-.57A82,82,0,0,0,55.36,330a50.43,50.43,0,0,0-18.25,6.86,28.32,28.32,0,0,0-2.52,1.75A20.61,20.61,0,0,0,32.82,340c-.92.8-1.41,1.21-1.41,1.21s.46-.44,1.37-1.26c.45-.42,1-.89,1.75-1.43a28.1,28.1,0,0,1,2.52-1.78,50.16,50.16,0,0,1,18.27-7,81.1,81.1,0,0,1,13.5-1.36c4.89-.12,10.1.16,15.58.54s11.2.9,17.16,1.15a98,98,0,0,0,18.42-.68,105.44,105.44,0,0,0,18-4.1c5.69-1.78,11.09-3.78,16.18-5.82,10.18-4.06,19.28-7.93,27.13-10.63a127.82,127.82,0,0,1,18.94-5.19c2.28-.47,4.08-.6,5.29-.8Z" style="fill: rgb(38, 50, 56); transform-origin: 119.37px 321.945px;" id="eleshtu3okwqu" class="animable"></path><path d="M202.35,284.59s-.64-.08-1.85-.27l-5.32-.83a193.66,193.66,0,0,0-19.65-2.07c-8.29-.33-18.41-.12-28.94,3.24-.66.21-1.32.41-2,.64l-2,.77c-1.32.49-2.61,1.09-3.92,1.71a77.55,77.55,0,0,0-7.68,4.33c-5.08,3.2-10.05,6.95-15.28,10.59a105,105,0,0,1-16,9.45,120.67,120.67,0,0,1-16.2,6.17,182.76,182.76,0,0,1-28.72,5.88c-8.29,1.08-15,1.6-19.68,2s-7.24.5-7.24.5.64-.07,1.87-.17l5.36-.45c4.65-.4,11.38-1,19.66-2.06a185.12,185.12,0,0,0,28.67-5.94,119.58,119.58,0,0,0,16.15-6.17,104.16,104.16,0,0,0,16-9.43c5.22-3.64,10.2-7.39,15.29-10.59a77.09,77.09,0,0,1,7.72-4.34c1.31-.62,2.61-1.22,3.94-1.71l2-.77c.66-.23,1.32-.43,2-.65,10.59-3.35,20.74-3.54,29-3.19a191.32,191.32,0,0,1,19.66,2.17C199.82,284.11,202.35,284.59,202.35,284.59Z" style="fill: rgb(38, 50, 56); transform-origin: 115.11px 303.903px;" id="elxlxtnq12zbb" class="animable"></path><path d="M117.32,288.74s-.24.25-.72.71l-2.11,2L113,292.85c-.58.51-1.23,1-1.92,1.59-1.39,1.12-2.91,2.47-4.77,3.74l-2.87,2.06c-1,.71-2.1,1.35-3.21,2.07-2.2,1.47-4.7,2.79-7.3,4.23A116.39,116.39,0,0,1,75,313.91a116.29,116.29,0,0,1-18.9,4c-3,.29-5.77.62-8.41.66-1.32,0-2.6.13-3.83.11l-3.52-.08c-2.25,0-4.27-.24-6.05-.38-.89-.08-1.72-.13-2.48-.22l-2.07-.31-2.86-.44c-.65-.1-1-.17-1-.17l1,.11,2.87.38,2.07.29c.75.08,1.58.12,2.47.2,1.78.11,3.8.35,6,.33l3.52.06c1.23,0,2.5-.09,3.82-.13,2.64-.05,5.44-.39,8.39-.68A118.18,118.18,0,0,0,75,313.62a117.3,117.3,0,0,0,17.81-7.33c2.6-1.43,5.1-2.73,7.3-4.19,1.11-.71,2.21-1.35,3.21-2.05l2.87-2c1.86-1.26,3.39-2.6,4.79-3.7.69-.56,1.35-1.07,1.93-1.56l1.55-1.41c.88-.8,1.6-1.44,2.14-1.94S117.32,288.74,117.32,288.74Z" style="fill: rgb(38, 50, 56); transform-origin: 71.6px 303.711px;" id="elmiht5ia5eyb" class="animable"></path><path d="M59.09,345.63a2.65,2.65,0,0,1-2.06.93,8.67,8.67,0,0,0-2.61.45,1.75,1.75,0,0,0-1,1.17,1.07,1.07,0,0,0,.71,1.38,5.08,5.08,0,0,0,2-.09q1.07-.18,2.19-.48a20,20,0,0,0,4.55-1.85,6,6,0,0,0,1.92-1.75,2.78,2.78,0,0,0,.29-2.55,3.85,3.85,0,0,0-1.89-2,8.08,8.08,0,0,0-2.83-.71,28.94,28.94,0,0,0-11.17,1.29,48.62,48.62,0,0,0-8.51,3.63c-2.32,1.25-4.15,2.37-5.4,3.15l-1.44.91c-.33.21-.51.3-.51.3a69.56,69.56,0,0,1,7.25-4.55,47.68,47.68,0,0,1,8.53-3.71,29,29,0,0,1,11.28-1.32,8.29,8.29,0,0,1,2.94.75,4.1,4.1,0,0,1,2,2.13,3,3,0,0,1-.33,2.8,6.17,6.17,0,0,1-2,1.84,20.22,20.22,0,0,1-4.64,1.85c-.75.2-1.49.35-2.21.47a5.18,5.18,0,0,1-2.11.06,1.25,1.25,0,0,1-.78-.66,1.48,1.48,0,0,1-.05-1,2,2,0,0,1,1.12-1.28,9,9,0,0,1,2.68-.41,3.8,3.8,0,0,0,1.61-.45A2.72,2.72,0,0,0,59.09,345.63Z" style="fill: rgb(38, 50, 56); transform-origin: 49.4325px 344.773px;" id="elgmefqst25kv" class="animable"></path><path d="M70.18,301.51a1.94,1.94,0,0,1-.86.34,2.83,2.83,0,0,1-2.48-.78l-.07-.07.09-.06a23.62,23.62,0,0,1,8.39-2.73,19.06,19.06,0,0,1,5.93,0,3.17,3.17,0,0,1,1.45.78,1.48,1.48,0,0,1,.27,1.67c-.63,1.1-1.87,1.36-2.89,1.78a47.19,47.19,0,0,1-17.29,2.89,37.31,37.31,0,0,1-7.25-.78l.5.05,1.44.18a49.14,49.14,0,0,0,22.5-2.63c1-.4,2.22-.71,2.72-1.62a1.19,1.19,0,0,0-.21-1.34,2.86,2.86,0,0,0-1.32-.7,19.64,19.64,0,0,0-5.82-.06,24.38,24.38,0,0,0-8.35,2.61l0-.12a2.79,2.79,0,0,0,2.36.81A3.48,3.48,0,0,0,70.18,301.51Z" style="fill: rgb(38, 50, 56); transform-origin: 69.258px 301.659px;" id="elkvcv4r92kgp" class="animable"></path><path d="M206.51,308.88a5.57,5.57,0,0,1-.94.19c-.61.1-1.48.27-2.55.5a44,44,0,0,0-8.13,2.68,43.37,43.37,0,0,0-7.44,4.24c-.89.63-1.6,1.17-2.08,1.55a6.5,6.5,0,0,1-.77.57,4.67,4.67,0,0,1,.69-.66c.46-.41,1.15-1,2-1.64A39,39,0,0,1,203,309.37c1.09-.22,2-.35,2.58-.41A6.19,6.19,0,0,1,206.51,308.88Z" style="fill: rgb(38, 50, 56); transform-origin: 195.555px 313.745px;" id="elop4hbhy656" class="animable"></path><path d="M202.73,277.18a2.71,2.71,0,0,1-.66.08c-.42,0-1,.05-1.8,0a23.87,23.87,0,0,1-5.89-.91,24.35,24.35,0,0,1-5.48-2.31,16.67,16.67,0,0,1-1.52-1,3.24,3.24,0,0,1-.52-.41c0-.05.81.48,2.14,1.2a27.38,27.38,0,0,0,5.47,2.21,27.83,27.83,0,0,0,5.81,1C201.79,277.17,202.73,277.12,202.73,277.18Z" style="fill: rgb(38, 50, 56); transform-origin: 194.795px 274.954px;" id="el3i7z4nag265" class="animable"></path><path d="M89,314.87l.58,2.72L78.19,320l-3.1-14.7L86.2,303l.57,2.73L79,307.31l.68,3.19,6.82-1.44.56,2.65-6.82,1.44.71,3.4Z" style="fill: rgb(255, 255, 255); transform-origin: 82.335px 311.5px;" id="elvhkogjr4ntb" class="animable"></path><path d="M101.65,315.05l-3.7-3.5-.17,0-3,.62.86,4.1-3.4.71-3.1-14.7L95.54,301c3.93-.83,6.81.69,7.51,4a4.89,4.89,0,0,1-2,5.28l4.29,4Zm-5.71-11.26-2.77.59,1.08,5.12,2.77-.58c2.08-.44,2.92-1.63,2.59-3.22S98,303.35,95.94,303.79Z" style="fill: rgb(255, 255, 255); transform-origin: 97.24px 308.878px;" id="elpe9pay1krik" class="animable"></path><path d="M117.08,311.79l-3.7-3.49-.17,0-3,.63.87,4.09-3.41.72-3.1-14.7,6.37-1.35c3.92-.82,6.81.69,7.51,4a4.89,4.89,0,0,1-2,5.28l4.3,4Zm-5.71-11.25-2.77.58,1.08,5.13,2.77-.59c2.08-.44,2.93-1.62,2.59-3.22S113.45,300.1,111.37,300.54Z" style="fill: rgb(255, 255, 255); transform-origin: 112.66px 305.605px;" id="elrpwisst0pl" class="animable"></path><path d="M120.68,303.36c-.93-4.37,1.79-8.32,6.44-9.3s8.72,1.51,9.64,5.9-1.82,8.33-6.44,9.3S121.6,307.72,120.68,303.36Zm12.64-2.67a4.7,4.7,0,1,0-3.61,5.67A4.59,4.59,0,0,0,133.32,300.69Z" style="fill: rgb(255, 255, 255); transform-origin: 128.718px 301.658px;" id="eldeee69m3r0o" class="animable"></path><path d="M150.24,304.8l-3.7-3.5-.17,0-3,.63.87,4.09-3.41.72-3.1-14.7,6.37-1.34c3.92-.83,6.81.69,7.51,4A4.9,4.9,0,0,1,149.6,300l4.3,4Zm-5.71-11.26-2.77.59,1.08,5.12,2.77-.58c2.08-.44,2.93-1.63,2.59-3.23S146.61,293.1,144.53,293.54Z" style="fill: rgb(255, 255, 255); transform-origin: 145.815px 298.608px;" id="elrfupucmd4m" class="animable"></path><path d="M51.89,339.83l.25-.91a5.11,5.11,0,0,0,3.6.52c1.89-.4,2.55-1.37,2.34-2.37-.59-2.77-6.46.25-7.25-3.5-.31-1.48.57-3,3.14-3.56a5.8,5.8,0,0,1,3.33.24l-.18.93a5.33,5.33,0,0,0-2.95-.26c-1.85.39-2.5,1.39-2.29,2.4.58,2.78,6.46-.21,7.24,3.47.31,1.49-.6,3-3.19,3.56A5.63,5.63,0,0,1,51.89,339.83Z" style="fill: rgb(255, 255, 255); transform-origin: 54.9743px 335.192px;" id="elz200kwu9h9a" class="animable"></path><path d="M67.68,334.14l-6.36,1.34a2.89,2.89,0,0,0,3.56,2A3.07,3.07,0,0,0,67,336l.72.54a4.11,4.11,0,0,1-7.48-1.17,3.78,3.78,0,1,1,7.4-1.56C67.65,333.91,67.66,334,67.68,334.14Zm-6.52.58,5.39-1.14a2.76,2.76,0,0,0-5.39,1.14Z" style="fill: rgb(255, 255, 255); transform-origin: 63.9393px 334.646px;" id="elyr6w28vidg" class="animable"></path><path d="M72.75,328.71l.21,1a2.13,2.13,0,0,1-.25,0c-1.59.34-2.34,1.56-2,3.35l.81,3.87-1,.22-1.61-7.6,1-.21.31,1.49A2.91,2.91,0,0,1,72.75,328.71Z" style="fill: rgb(255, 255, 255); transform-origin: 70.935px 332.93px;" id="elyn2qohyuvn8" class="animable"></path><path d="M81.34,327l-1.78,8.32-1,.22-5-6.9,1.07-.22,4.22,5.87,1.51-7.08Z" style="fill: rgb(255, 255, 255); transform-origin: 77.45px 331.27px;" id="elee1cwsq3b5m" class="animable"></path><path d="M82.05,324.3a.76.76,0,0,1,.6-.88.74.74,0,0,1,.9.55.75.75,0,0,1-.59.91A.76.76,0,0,1,82.05,324.3Zm.74,2.35,1-.21,1.6,7.6-1,.21Z" style="fill: rgb(255, 255, 255); transform-origin: 83.714px 328.824px;" id="elcosausfu27" class="animable"></path><path d="M86.72,329.79a3.82,3.82,0,0,1,3.1-4.68,3.4,3.4,0,0,1,3.3.87l-.66.68A2.67,2.67,0,0,0,90,326a3,3,0,0,0,1.25,5.93,2.62,2.62,0,0,0,2-1.58l.87.36a3.42,3.42,0,0,1-2.66,2.13A3.83,3.83,0,0,1,86.72,329.79Z" style="fill: rgb(255, 255, 255); transform-origin: 90.3651px 328.976px;" id="elsor26un0j4n" class="animable"></path><path d="M102.19,326.86l-6.36,1.34a2.87,2.87,0,0,0,3.55,2,3.07,3.07,0,0,0,2.11-1.49l.72.54a4.1,4.1,0,0,1-7.48-1.17,3.74,3.74,0,0,1,2.9-4.64,3.7,3.7,0,0,1,4.5,3.08C102.15,326.63,102.16,326.75,102.19,326.86Zm-6.53.58,5.4-1.14a2.77,2.77,0,0,0-5.4,1.14Z" style="fill: rgb(255, 255, 255); transform-origin: 98.4062px 327.277px;" id="el60de82yttkv" class="animable"></path><path d="M114.08,320.05l1.6,7.61-1,.2-.3-1.39a3.08,3.08,0,0,1-2.42,2,3,3,0,0,1-3.9-2.59l-.93-4.41,1-.21.91,4.3c.34,1.62,1.35,2.27,2.8,2a2.52,2.52,0,0,0,2-3.3l-.84-4Z" style="fill: rgb(255, 255, 255); transform-origin: 111.405px 324.331px;" id="elc2o7pomptd" class="animable"></path><path d="M124.63,321.16l.93,4.41-1,.22-.91-4.31a2.17,2.17,0,0,0-2.79-2,2.55,2.55,0,0,0-2.08,3.31l.84,4-1,.22-1.6-7.61,1-.2.3,1.4a3.27,3.27,0,0,1,2.58-2.07A3,3,0,0,1,124.63,321.16Z" style="fill: rgb(255, 255, 255); transform-origin: 121.29px 322.723px;" id="el2x8qx5c0qfk" class="animable"></path><path d="M133.1,319.06l1,4.71-1,.21-.25-1.19a2.9,2.9,0,0,1-2.35,1.81c-1.72.37-3-.31-3.24-1.62s.3-2.32,2.48-2.78l2.41-.51-.09-.46a1.91,1.91,0,0,0-2.58-1.55,3.92,3.92,0,0,0-2.34,1.43l-.63-.67a4.94,4.94,0,0,1,2.88-1.68C131.37,316.34,132.69,317.09,133.1,319.06Zm-.51,2.64-.27-1.24-2.38.5c-1.48.31-1.83,1-1.67,1.77s1,1.28,2.23,1A2.51,2.51,0,0,0,132.59,321.7Z" style="fill: rgb(255, 255, 255); transform-origin: 130.305px 320.674px;" id="eldehy3srlnvp" class="animable"></path><path d="M141.53,314.26l-1.78,8.32-1.05.22-5-6.89,1.07-.23,4.21,5.87,1.51-7.08Z" style="fill: rgb(255, 255, 255); transform-origin: 137.615px 318.53px;" id="el2z1xk2agre8" class="animable"></path><path d="M149.1,315.68l1,4.72-1,.2-.25-1.18a2.94,2.94,0,0,1-2.35,1.81c-1.72.36-3-.31-3.24-1.63s.3-2.31,2.48-2.77l2.41-.51-.09-.46a1.92,1.92,0,0,0-2.58-1.56,4,4,0,0,0-2.34,1.43l-.63-.67a5,5,0,0,1,2.88-1.68C147.37,313,148.69,313.72,149.1,315.68Zm-.51,2.65-.27-1.25-2.38.51c-1.48.31-1.83,1-1.67,1.77s1,1.28,2.23,1A2.49,2.49,0,0,0,148.59,318.33Z" style="fill: rgb(255, 255, 255); transform-origin: 146.305px 317.304px;" id="elbvxxk5nw6t9" class="animable"></path><path d="M150.55,309.85a.76.76,0,0,1,.6-.88.74.74,0,0,1,.9.55.75.75,0,0,1-.59.91A.76.76,0,0,1,150.55,309.85Zm.74,2.35,1-.21,1.61,7.6-1,.22Z" style="fill: rgb(255, 255, 255); transform-origin: 152.219px 314.379px;" id="elj3g0m24xhl" class="animable"></path><path d="M154.52,308.26l1-.22,2.26,10.73-1,.21Z" style="fill: rgb(255, 255, 255); transform-origin: 156.15px 313.51px;" id="elik26l3sadid" class="animable"></path><path d="M165.42,312.24l1,4.71-1,.21-.25-1.19a2.93,2.93,0,0,1-2.35,1.82c-1.72.36-3-.32-3.24-1.63s.29-2.31,2.48-2.77l2.41-.51-.1-.47a1.9,1.9,0,0,0-2.57-1.55,4,4,0,0,0-2.35,1.43l-.62-.67a4.94,4.94,0,0,1,2.88-1.68C163.68,309.53,165,310.27,165.42,312.24Zm-.52,2.65-.26-1.25-2.38.51c-1.48.31-1.83,1-1.67,1.77s1,1.28,2.23,1A2.47,2.47,0,0,0,164.9,314.89Z" style="fill: rgb(255, 255, 255); transform-origin: 162.625px 313.858px;" id="elk8wvkysv9n" class="animable"></path><path d="M176.11,310.94a3.77,3.77,0,0,1-3,4.67,3.37,3.37,0,0,1-3.27-1l.32,1.51-1,.2L167,305.64l1-.22,1,4.57a3.36,3.36,0,0,1,2.57-2.11A3.75,3.75,0,0,1,176.11,310.94Zm-1,.21a2.9,2.9,0,1,0-2.2,3.57A2.84,2.84,0,0,0,175.08,311.15Z" style="fill: rgb(255, 255, 255); transform-origin: 171.617px 310.87px;" id="el4x5ust9q1rv" class="animable"></path><path d="M176.75,303.57l1-.22L180,314.08l-1,.21Z" style="fill: rgb(255, 255, 255); transform-origin: 178.375px 308.82px;" id="el90i6x9ebrd" class="animable"></path><path d="M188.79,308.59l-6.36,1.34a2.88,2.88,0,0,0,3.55,2,3,3,0,0,0,2.12-1.49l.72.54a4.1,4.1,0,0,1-7.48-1.17,3.78,3.78,0,1,1,7.4-1.56C188.76,308.36,188.77,308.48,188.79,308.59Zm-6.52.58,5.39-1.14a2.76,2.76,0,0,0-5.39,1.14Z" style="fill: rgb(255, 255, 255); transform-origin: 185.039px 309.094px;" id="elo8b1u56clqj" class="animable"></path></g><defs>     <filter id="active" height="200%">         <feMorphology in="SourceAlpha" result="DILATED" operator="dilate" radius="2"></feMorphology>                <feFlood flood-color="#32DFEC" flood-opacity="1" result="PINK"></feFlood>        <feComposite in="PINK" in2="DILATED" operator="in" result="OUTLINE"></feComposite>        <feMerge>            <feMergeNode in="OUTLINE"></feMergeNode>            <feMergeNode in="SourceGraphic"></feMergeNode>        </feMerge>    </filter>    <filter id="hover" height="200%">        <feMorphology in="SourceAlpha" result="DILATED" operator="dilate" radius="2"></feMorphology>                <feFlood flood-color="#ff0000" flood-opacity="0.5" result="PINK"></feFlood>        <feComposite in="PINK" in2="DILATED" operator="in" result="OUTLINE"></feComposite>        <feMerge>            <feMergeNode in="OUTLINE"></feMergeNode>            <feMergeNode in="SourceGraphic"></feMergeNode>        </feMerge>            <feColorMatrix type="matrix" values="0   0   0   0   0                0   1   0   0   0                0   0   0   0   0                0   0   0   1   0 "></feColorMatrix>    </filter></defs></svg>